<svg xmlns="http://www.w3.org/2000/svg" width="25" height="27" viewBox="0 0 25 27"><g transform="translate(-675 -1715)"><path d="M25,1H0V-1H25Z" transform="translate(675 1741)" fill="#832019"/><rect width="25" height="25" transform="translate(675 1715)" fill="#c72e24"/><g transform="translate(-0.75 18.75)"><path d="M0,0H.5V.5H0Z" transform="translate(687 1702)" fill="#fff"/><path d="M0,0H.5V.5H0Z" transform="translate(687.5 1702)" fill="#fff"/><path d="M0,0H.5V.5H0Z" transform="translate(688 1702)" fill="#fff"/><path d="M0,0H.5V.5H0Z" transform="translate(688.5 1702)" fill="#fff"/><path d="M0,0H.5V.5H0Z" transform="translate(689.5 1702.5)" fill="#fff"/><path d="M0,0H.5V.5H0Z" transform="translate(690.5 1703)" fill="#fff"/><path d="M0,0H.5V.5H0Z" transform="translate(691.5 1703.5)" fill="#fff"/><path d="M0,0H.5V.5H0Z" transform="translate(689 1702)" fill="#fff"/><path d="M0,0H.5V.5H0Z" transform="translate(690 1702.5)" fill="#fff"/><path d="M0,0H.5V.5H0Z" transform="translate(691 1703)" fill="#fff"/><path d="M0,0H.5V.5H0Z" transform="translate(692 1703.5)" fill="#fff"/><path d="M0,0H.5V.5H0Z" transform="translate(692.5 1704)" fill="#fff"/><path d="M0,0H.5V.5H0Z" transform="translate(693 1704.5)" fill="#fff"/><path d="M0,0H.5V.5H0Z" transform="translate(693.5 1705)" fill="#fff"/><path d="M0,0H.5V.5H0Z" transform="translate(694 1706)" fill="#fff"/><path d="M0,0H.5V.5H0Z" transform="translate(694.5 1707)" fill="#fff"/><path d="M0,0H.5V.5H0Z" transform="translate(693.5 1705.5)" fill="#fff"/><path d="M0,0H.5V.5H0Z" transform="translate(694 1706.5)" fill="#fff"/><path d="M0,0H.5V.5H0Z" transform="translate(694.5 1707.5)" fill="#fff"/><path d="M0,0H.5V.5H0Z" transform="translate(687 1702)" fill="#fff"/><path d="M0,0H.5V.5H0Z" transform="translate(687.5 1702)" fill="#fff"/><path d="M0,0H.5V.5H0Z" transform="translate(688 1702)" fill="#fff"/><path d="M0,0H.5V.5H0Z" transform="translate(688.5 1702)" fill="#fff"/><path d="M0,0H.5V.5H0Z" transform="translate(689.5 1702.5)" fill="#fff"/><path d="M0,0H.5V.5H0Z" transform="translate(690.5 1703)" fill="#fff"/><path d="M0,0H.5V.5H0Z" transform="translate(691.5 1703.5)" fill="#fff"/><path d="M0,0H.5V.5H0Z" transform="translate(689 1702)" fill="#fff"/><path d="M0,0H.5V.5H0Z" transform="translate(690 1702.5)" fill="#fff"/><path d="M0,0H.5V.5H0Z" transform="translate(691 1703)" fill="#fff"/><path d="M0,0H.5V.5H0Z" transform="translate(692 1703.5)" fill="#fff"/><path d="M0,0H.5V.5H0Z" transform="translate(692.5 1704)" fill="#fff"/><path d="M0,0H.5V.5H0Z" transform="translate(693 1704.5)" fill="#fff"/><path d="M0,0H.5V.5H0Z" transform="translate(693.5 1705)" fill="#fff"/><path d="M0,0H.5V.5H0Z" transform="translate(694 1706)" fill="#fff"/><path d="M0,0H.5V.5H0Z" transform="translate(694.5 1707)" fill="#fff"/><path d="M0,0H.5V.5H0Z" transform="translate(693.5 1705.5)" fill="#fff"/><path d="M0,0H.5V.5H0Z" transform="translate(694 1706.5)" fill="#fff"/><path d="M0,0H.5V.5H0Z" transform="translate(694.5 1707.5)" fill="#fff"/><path d="M0,0H.5V.5H0Z" transform="translate(695.5 1708) rotate(90)" fill="#fff"/><path d="M0,0H.5V.5H0Z" transform="translate(695.5 1708.5) rotate(90)" fill="#fff"/><path d="M0,0H.5V.5H0Z" transform="translate(695.5 1709) rotate(90)" fill="#fff"/><path d="M0,0H.5V.5H0Z" transform="translate(695.5 1709.5) rotate(90)" fill="#fff"/><path d="M0,0H.5V.5H0Z" transform="translate(695 1710.5) rotate(90)" fill="#fff"/><path d="M0,0H.5V.5H0Z" transform="translate(694.5 1711.5) rotate(90)" fill="#fff"/><path d="M0,0H.5V.5H0Z" transform="translate(694 1712.5) rotate(90)" fill="#fff"/><path d="M0,0H.5V.5H0Z" transform="translate(695.5 1710) rotate(90)" fill="#fff"/><path d="M0,0H.5V.5H0Z" transform="translate(695 1711) rotate(90)" fill="#fff"/><path d="M0,0H.5V.5H0Z" transform="translate(694.5 1712) rotate(90)" fill="#fff"/><path d="M0,0H.5V.5H0Z" transform="translate(694 1713) rotate(90)" fill="#fff"/><path d="M0,0H.5V.5H0Z" transform="translate(693.5 1713.5) rotate(90)" fill="#fff"/><path d="M0,0H.5V.5H0Z" transform="translate(693 1714) rotate(90)" fill="#fff"/><path d="M0,0H.5V.5H0Z" transform="translate(692.5 1714.5) rotate(90)" fill="#fff"/><path d="M0,0H.5V.5H0Z" transform="translate(691.5 1715) rotate(90)" fill="#fff"/><path d="M0,0H.5V.5H0Z" transform="translate(690.5 1715.5) rotate(90)" fill="#fff"/><path d="M0,0H.5V.5H0Z" transform="translate(692 1714.5) rotate(90)" fill="#fff"/><path d="M0,0H.5V.5H0Z" transform="translate(691 1715) rotate(90)" fill="#fff"/><path d="M0,0H.5V.5H0Z" transform="translate(690 1715.5) rotate(90)" fill="#fff"/><path d="M0,0H.5V.5H0Z" transform="translate(695.5 1708) rotate(90)" fill="#fff"/><path d="M0,0H.5V.5H0Z" transform="translate(695.5 1708.5) rotate(90)" fill="#fff"/><path d="M0,0H.5V.5H0Z" transform="translate(695.5 1709) rotate(90)" fill="#fff"/><path d="M0,0H.5V.5H0Z" transform="translate(695.5 1709.5) rotate(90)" fill="#fff"/><path d="M0,0H.5V.5H0Z" transform="translate(695 1710.5) rotate(90)" fill="#fff"/><path d="M0,0H.5V.5H0Z" transform="translate(694.5 1711.5) rotate(90)" fill="#fff"/><path d="M0,0H.5V.5H0Z" transform="translate(694 1712.5) rotate(90)" fill="#fff"/><path d="M0,0H.5V.5H0Z" transform="translate(695.5 1710) rotate(90)" fill="#fff"/><path d="M0,0H.5V.5H0Z" transform="translate(695 1711) rotate(90)" fill="#fff"/><path d="M0,0H.5V.5H0Z" transform="translate(694.5 1712) rotate(90)" fill="#fff"/><path d="M0,0H.5V.5H0Z" transform="translate(694 1713) rotate(90)" fill="#fff"/><path d="M0,0H.5V.5H0Z" transform="translate(693.5 1713.5) rotate(90)" fill="#fff"/><path d="M0,0H.5V.5H0Z" transform="translate(693 1714) rotate(90)" fill="#fff"/><path d="M0,0H.5V.5H0Z" transform="translate(692.5 1714.5) rotate(90)" fill="#fff"/><path d="M0,0H.5V.5H0Z" transform="translate(691.5 1715) rotate(90)" fill="#fff"/><path d="M0,0H.5V.5H0Z" transform="translate(690.5 1715.5) rotate(90)" fill="#fff"/><path d="M0,0H.5V.5H0Z" transform="translate(692 1714.5) rotate(90)" fill="#fff"/><path d="M0,0H.5V.5H0Z" transform="translate(691 1715) rotate(90)" fill="#fff"/><path d="M0,0H.5V.5H0Z" transform="translate(690 1715.5) rotate(90)" fill="#fff"/><path d="M0,0H.5V.5H0Z" transform="translate(689.5 1716.5) rotate(180)" fill="#fff"/><path d="M0,0H.5V.5H0Z" transform="translate(689 1716.5) rotate(180)" fill="#fff"/><path d="M0,0H.5V.5H0Z" transform="translate(688.5 1716.5) rotate(180)" fill="#fff"/><path d="M0,0H.5V.5H0Z" transform="translate(688 1716.5) rotate(180)" fill="#fff"/><path d="M0,0H.5V.5H0Z" transform="translate(687 1716) rotate(180)" fill="#fff"/><path d="M0,0H.5V.5H0Z" transform="translate(686 1715.5) rotate(180)" fill="#fff"/><path d="M0,0H.5V.5H0Z" transform="translate(685 1715) rotate(180)" fill="#fff"/><path d="M0,0H.5V.5H0Z" transform="translate(687.5 1716.5) rotate(180)" fill="#fff"/><path d="M0,0H.5V.5H0Z" transform="translate(686.5 1716) rotate(180)" fill="#fff"/><path d="M0,0H.5V.5H0Z" transform="translate(685.5 1715.5) rotate(180)" fill="#fff"/><path d="M0,0H.5V.5H0Z" transform="translate(684.5 1715) rotate(180)" fill="#fff"/><path d="M0,0H.5V.5H0Z" transform="translate(684 1714.5) rotate(180)" fill="#fff"/><path d="M0,0H.5V.5H0Z" transform="translate(683.5 1714) rotate(180)" fill="#fff"/><path d="M0,0H.5V.5H0Z" transform="translate(683 1713.5) rotate(180)" fill="#fff"/><path d="M0,0H.5V.5H0Z" transform="translate(682.5 1712.5) rotate(180)" fill="#fff"/><path d="M0,0H.5V.5H0Z" transform="translate(682 1711.5) rotate(180)" fill="#fff"/><path d="M0,0H.5V.5H0Z" transform="translate(683 1713) rotate(180)" fill="#fff"/><path d="M0,0H.5V.5H0Z" transform="translate(682.5 1712) rotate(180)" fill="#fff"/><path d="M0,0H.5V.5H0Z" transform="translate(682 1711) rotate(180)" fill="#fff"/><path d="M0,0H.5V.5H0Z" transform="translate(689.5 1716.5) rotate(180)" fill="#fff"/><path d="M0,0H.5V.5H0Z" transform="translate(689 1716.5) rotate(180)" fill="#fff"/><path d="M0,0H.5V.5H0Z" transform="translate(688.5 1716.5) rotate(180)" fill="#fff"/><path d="M0,0H.5V.5H0Z" transform="translate(688 1716.5) rotate(180)" fill="#fff"/><path d="M0,0H.5V.5H0Z" transform="translate(687 1716) rotate(180)" fill="#fff"/><path d="M0,0H.5V.5H0Z" transform="translate(686 1715.5) rotate(180)" fill="#fff"/><path d="M0,0H.5V.5H0Z" transform="translate(685 1715) rotate(180)" fill="#fff"/><path d="M0,0H.5V.5H0Z" transform="translate(687.5 1716.5) rotate(180)" fill="#fff"/><path d="M0,0H.5V.5H0Z" transform="translate(686.5 1716) rotate(180)" fill="#fff"/><path d="M0,0H.5V.5H0Z" transform="translate(685.5 1715.5) rotate(180)" fill="#fff"/><path d="M0,0H.5V.5H0Z" transform="translate(684.5 1715) rotate(180)" fill="#fff"/><path d="M0,0H.5V.5H0Z" transform="translate(684 1714.5) rotate(180)" fill="#fff"/><path d="M0,0H.5V.5H0Z" transform="translate(683.5 1714) rotate(180)" fill="#fff"/><path d="M0,0H.5V.5H0Z" transform="translate(683 1713.5) rotate(180)" fill="#fff"/><path d="M0,0H.5V.5H0Z" transform="translate(682.5 1712.5) rotate(180)" fill="#fff"/><path d="M0,0H.5V.5H0Z" transform="translate(682 1711.5) rotate(180)" fill="#fff"/><path d="M0,0H.5V.5H0Z" transform="translate(683 1713) rotate(180)" fill="#fff"/><path d="M0,0H.5V.5H0Z" transform="translate(682.5 1712) rotate(180)" fill="#fff"/><path d="M0,0H.5V.5H0Z" transform="translate(682 1711) rotate(180)" fill="#fff"/><path d="M0,0H.5V.5H0Z" transform="translate(681 1710.5) rotate(-90)" fill="#fff"/><path d="M0,0H.5V.5H0Z" transform="translate(681 1710) rotate(-90)" fill="#fff"/><path d="M0,0H.5V.5H0Z" transform="translate(681 1709.5) rotate(-90)" fill="#fff"/><path d="M0,0H.5V.5H0Z" transform="translate(681 1709) rotate(-90)" fill="#fff"/><path d="M0,0H.5V.5H0Z" transform="translate(681.5 1708) rotate(-90)" fill="#fff"/><path d="M0,0H.5V.5H0Z" transform="translate(682 1707) rotate(-90)" fill="#fff"/><path d="M0,0H.5V.5H0Z" transform="translate(682.5 1706) rotate(-90)" fill="#fff"/><path d="M0,0H.5V.5H0Z" transform="translate(681 1708.5) rotate(-90)" fill="#fff"/><path d="M0,0H.5V.5H0Z" transform="translate(681.5 1707.5) rotate(-90)" fill="#fff"/><path d="M0,0H.5V.5H0Z" transform="translate(682 1706.5) rotate(-90)" fill="#fff"/><path d="M0,0H.5V.5H0Z" transform="translate(682.5 1705.5) rotate(-90)" fill="#fff"/><path d="M0,0H.5V.5H0Z" transform="translate(683 1705) rotate(-90)" fill="#fff"/><path d="M0,0H.5V.5H0Z" transform="translate(683.5 1704.5) rotate(-90)" fill="#fff"/><path d="M0,0H.5V.5H0Z" transform="translate(684 1704) rotate(-90)" fill="#fff"/><path d="M0,0H.5V.5H0Z" transform="translate(685 1703.5) rotate(-90)" fill="#fff"/><path d="M0,0H.5V.5H0Z" transform="translate(686 1703) rotate(-90)" fill="#fff"/><path d="M0,0H.5V.5H0Z" transform="translate(684.5 1704) rotate(-90)" fill="#fff"/><path d="M0,0H.5V.5H0Z" transform="translate(685.5 1703.5) rotate(-90)" fill="#fff"/><path d="M0,0H.5V.5H0Z" transform="translate(686.5 1703) rotate(-90)" fill="#fff"/><path d="M0,0H.5V.5H0Z" transform="translate(681 1710.5) rotate(-90)" fill="#fff"/><path d="M0,0H.5V.5H0Z" transform="translate(681 1710) rotate(-90)" fill="#fff"/><path d="M0,0H.5V.5H0Z" transform="translate(681 1709.5) rotate(-90)" fill="#fff"/><path d="M0,0H.5V.5H0Z" transform="translate(681 1709) rotate(-90)" fill="#fff"/><path d="M0,0H.5V.5H0Z" transform="translate(681.5 1708) rotate(-90)" fill="#fff"/><path d="M0,0H.5V.5H0Z" transform="translate(682 1707) rotate(-90)" fill="#fff"/><path d="M0,0H.5V.5H0Z" transform="translate(682.5 1706) rotate(-90)" fill="#fff"/><path d="M0,0H.5V.5H0Z" transform="translate(681 1708.5) rotate(-90)" fill="#fff"/><path d="M0,0H.5V.5H0Z" transform="translate(681.5 1707.5) rotate(-90)" fill="#fff"/><path d="M0,0H.5V.5H0Z" transform="translate(682 1706.5) rotate(-90)" fill="#fff"/><path d="M0,0H.5V.5H0Z" transform="translate(682.5 1705.5) rotate(-90)" fill="#fff"/><path d="M0,0H.5V.5H0Z" transform="translate(683 1705) rotate(-90)" fill="#fff"/><path d="M0,0H.5V.5H0Z" transform="translate(683.5 1704.5) rotate(-90)" fill="#fff"/><path d="M0,0H.5V.5H0Z" transform="translate(684 1704) rotate(-90)" fill="#fff"/><path d="M0,0H.5V.5H0Z" transform="translate(685 1703.5) rotate(-90)" fill="#fff"/><path d="M0,0H.5V.5H0Z" transform="translate(686 1703) rotate(-90)" fill="#fff"/><path d="M0,0H.5V.5H0Z" transform="translate(684.5 1704) rotate(-90)" fill="#fff"/><path d="M0,0H.5V.5H0Z" transform="translate(685.5 1703.5) rotate(-90)" fill="#fff"/><path d="M0,0H.5V.5H0Z" transform="translate(686.5 1703) rotate(-90)" fill="#fff"/><path d="M0,0H.5V.5H0Z" transform="translate(686.5 1706) rotate(-90)" fill="#fff"/><path d="M0,0H.5V.5H0Z" transform="translate(690.5 1706) rotate(-90)" fill="#fff"/><path d="M0,0H.5V.5H0Z" transform="translate(684.5 1706) rotate(-90)" fill="#fff"/><path d="M0,0H.5V.5H0Z" transform="translate(688.5 1706) rotate(-90)" fill="#fff"/><path d="M0,0H.5V.5H0Z" transform="translate(692.5 1706) rotate(-90)" fill="#fff"/><path d="M0,0H.5V.5H0Z" transform="translate(683.5 1706) rotate(-90)" fill="#fff"/><path d="M0,0H.5V.5H0Z" transform="translate(687.5 1706) rotate(-90)" fill="#fff"/><path d="M0,0H.5V.5H0Z" transform="translate(691.5 1706) rotate(-90)" fill="#fff"/><path d="M0,0H.5V.5H0Z" transform="translate(685.5 1706) rotate(-90)" fill="#fff"/><path d="M0,0H.5V.5H0Z" transform="translate(689.5 1706) rotate(-90)" fill="#fff"/><path d="M0,0H.5V.5H0Z" transform="translate(683 1706) rotate(-90)" fill="#fff"/><path d="M0,0H.5V.5H0Z" transform="translate(687 1706) rotate(-90)" fill="#fff"/><path d="M0,0H.5V.5H0Z" transform="translate(691 1706) rotate(-90)" fill="#fff"/><path d="M0,0H.5V.5H0Z" transform="translate(685 1706) rotate(-90)" fill="#fff"/><path d="M0,0H.5V.5H0Z" transform="translate(689 1706) rotate(-90)" fill="#fff"/><path d="M0,0H.5V.5H0Z" transform="translate(693 1706) rotate(-90)" fill="#fff"/><path d="M0,0H.5V.5H0Z" transform="translate(684 1706) rotate(-90)" fill="#fff"/><path d="M0,0H.5V.5H0Z" transform="translate(688 1706) rotate(-90)" fill="#fff"/><path d="M0,0H.5V.5H0Z" transform="translate(692 1706) rotate(-90)" fill="#fff"/><path d="M0,0H.5V.5H0Z" transform="translate(686 1706) rotate(-90)" fill="#fff"/><path d="M0,0H.5V.5H0Z" transform="translate(690 1706) rotate(-90)" fill="#fff"/><g transform="translate(0 7)"><path d="M0,0H.5V.5H0Z" transform="translate(686.5 1706) rotate(-90)" fill="#fff"/><path d="M0,0H.5V.5H0Z" transform="translate(690.5 1706) rotate(-90)" fill="#fff"/><path d="M0,0H.5V.5H0Z" transform="translate(684.5 1706) rotate(-90)" fill="#fff"/><path d="M0,0H.5V.5H0Z" transform="translate(688.5 1706) rotate(-90)" fill="#fff"/><path d="M0,0H.5V.5H0Z" transform="translate(692.5 1706) rotate(-90)" fill="#fff"/><path d="M0,0H.5V.5H0Z" transform="translate(683.5 1706) rotate(-90)" fill="#fff"/><path d="M0,0H.5V.5H0Z" transform="translate(687.5 1706) rotate(-90)" fill="#fff"/><path d="M0,0H.5V.5H0Z" transform="translate(691.5 1706) rotate(-90)" fill="#fff"/><path d="M0,0H.5V.5H0Z" transform="translate(685.5 1706) rotate(-90)" fill="#fff"/><path d="M0,0H.5V.5H0Z" transform="translate(689.5 1706) rotate(-90)" fill="#fff"/><path d="M0,0H.5V.5H0Z" transform="translate(683 1706) rotate(-90)" fill="#fff"/><path d="M0,0H.5V.5H0Z" transform="translate(687 1706) rotate(-90)" fill="#fff"/><path d="M0,0H.5V.5H0Z" transform="translate(691 1706) rotate(-90)" fill="#fff"/><path d="M0,0H.5V.5H0Z" transform="translate(685 1706) rotate(-90)" fill="#fff"/><path d="M0,0H.5V.5H0Z" transform="translate(689 1706) rotate(-90)" fill="#fff"/><path d="M0,0H.5V.5H0Z" transform="translate(693 1706) rotate(-90)" fill="#fff"/><path d="M0,0H.5V.5H0Z" transform="translate(684 1706) rotate(-90)" fill="#fff"/><path d="M0,0H.5V.5H0Z" transform="translate(688 1706) rotate(-90)" fill="#fff"/><path d="M0,0H.5V.5H0Z" transform="translate(692 1706) rotate(-90)" fill="#fff"/><path d="M0,0H.5V.5H0Z" transform="translate(686 1706) rotate(-90)" fill="#fff"/><path d="M0,0H.5V.5H0Z" transform="translate(690 1706) rotate(-90)" fill="#fff"/></g><g transform="translate(-1.5 3.5)"><path d="M0,0H.5V.5H0Z" transform="translate(686.5 1706) rotate(-90)" fill="#fff"/><path d="M0,0H.5V.5H0Z" transform="translate(690.5 1706) rotate(-90)" fill="#fff"/><path d="M0,0H.5V.5H0Z" transform="translate(684.5 1706) rotate(-90)" fill="#fff"/><path d="M0,0H.5V.5H0Z" transform="translate(688.5 1706) rotate(-90)" fill="#fff"/><path d="M0,0H.5V.5H0Z" transform="translate(692.5 1706) rotate(-90)" fill="#fff"/><path d="M0,0H.5V.5H0Z" transform="translate(695 1706) rotate(-90)" fill="#fff"/><path d="M0,0H.5V.5H0Z" transform="translate(683.5 1706) rotate(-90)" fill="#fff"/><path d="M0,0H.5V.5H0Z" transform="translate(687.5 1706) rotate(-90)" fill="#fff"/><path d="M0,0H.5V.5H0Z" transform="translate(691.5 1706) rotate(-90)" fill="#fff"/><path d="M0,0H.5V.5H0Z" transform="translate(694 1706) rotate(-90)" fill="#fff"/><path d="M0,0H.5V.5H0Z" transform="translate(685.5 1706) rotate(-90)" fill="#fff"/><path d="M0,0H.5V.5H0Z" transform="translate(689.5 1706) rotate(-90)" fill="#fff"/><path d="M0,0H.5V.5H0Z" transform="translate(683 1706) rotate(-90)" fill="#fff"/><path d="M0,0H.5V.5H0Z" transform="translate(687 1706) rotate(-90)" fill="#fff"/><path d="M0,0H.5V.5H0Z" transform="translate(691 1706) rotate(-90)" fill="#fff"/><path d="M0,0H.5V.5H0Z" transform="translate(693.5 1706) rotate(-90)" fill="#fff"/><path d="M0,0H.5V.5H0Z" transform="translate(685 1706) rotate(-90)" fill="#fff"/><path d="M0,0H.5V.5H0Z" transform="translate(689 1706) rotate(-90)" fill="#fff"/><path d="M0,0H.5V.5H0Z" transform="translate(693 1706) rotate(-90)" fill="#fff"/><path d="M0,0H.5V.5H0Z" transform="translate(695.5 1706) rotate(-90)" fill="#fff"/><path d="M0,0H.5V.5H0Z" transform="translate(696 1706) rotate(-90)" fill="#fff"/><path d="M0,0H.5V.5H0Z" transform="translate(684 1706) rotate(-90)" fill="#fff"/><path d="M0,0H.5V.5H0Z" transform="translate(688 1706) rotate(-90)" fill="#fff"/><path d="M0,0H.5V.5H0Z" transform="translate(692 1706) rotate(-90)" fill="#fff"/><path d="M0,0H.5V.5H0Z" transform="translate(694.5 1706) rotate(-90)" fill="#fff"/><path d="M0,0H.5V.5H0Z" transform="translate(686 1706) rotate(-90)" fill="#fff"/><path d="M0,0H.5V.5H0Z" transform="translate(690 1706) rotate(-90)" fill="#fff"/></g><g transform="translate(2394 1019.5) rotate(90)"><path d="M0,0H.5V.5H0Z" transform="translate(686.5 1706) rotate(-90)" fill="#fff"/><path d="M0,0H.5V.5H0Z" transform="translate(690.5 1706) rotate(-90)" fill="#fff"/><path d="M0,0H.5V.5H0Z" transform="translate(684.5 1706) rotate(-90)" fill="#fff"/><path d="M0,0H.5V.5H0Z" transform="translate(688.5 1706) rotate(-90)" fill="#fff"/><path d="M0,0H.5V.5H0Z" transform="translate(692.5 1706) rotate(-90)" fill="#fff"/><path d="M0,0H.5V.5H0Z" transform="translate(695 1706) rotate(-90)" fill="#fff"/><path d="M0,0H.5V.5H0Z" transform="translate(683.5 1706) rotate(-90)" fill="#fff"/><path d="M0,0H.5V.5H0Z" transform="translate(687.5 1706) rotate(-90)" fill="#fff"/><path d="M0,0H.5V.5H0Z" transform="translate(691.5 1706) rotate(-90)" fill="#fff"/><path d="M0,0H.5V.5H0Z" transform="translate(694 1706) rotate(-90)" fill="#fff"/><path d="M0,0H.5V.5H0Z" transform="translate(685.5 1706) rotate(-90)" fill="#fff"/><path d="M0,0H.5V.5H0Z" transform="translate(689.5 1706) rotate(-90)" fill="#fff"/><path d="M0,0H.5V.5H0Z" transform="translate(683 1706) rotate(-90)" fill="#fff"/><path d="M0,0H.5V.5H0Z" transform="translate(687 1706) rotate(-90)" fill="#fff"/><path d="M0,0H.5V.5H0Z" transform="translate(691 1706) rotate(-90)" fill="#fff"/><path d="M0,0H.5V.5H0Z" transform="translate(693.5 1706) rotate(-90)" fill="#fff"/><path d="M0,0H.5V.5H0Z" transform="translate(685 1706) rotate(-90)" fill="#fff"/><path d="M0,0H.5V.5H0Z" transform="translate(689 1706) rotate(-90)" fill="#fff"/><path d="M0,0H.5V.5H0Z" transform="translate(693 1706) rotate(-90)" fill="#fff"/><path d="M0,0H.5V.5H0Z" transform="translate(695.5 1706) rotate(-90)" fill="#fff"/><path d="M0,0H.5V.5H0Z" transform="translate(696 1706) rotate(-90)" fill="#fff"/><path d="M0,0H.5V.5H0Z" transform="translate(684 1706) rotate(-90)" fill="#fff"/><path d="M0,0H.5V.5H0Z" transform="translate(688 1706) rotate(-90)" fill="#fff"/><path d="M0,0H.5V.5H0Z" transform="translate(692 1706) rotate(-90)" fill="#fff"/><path d="M0,0H.5V.5H0Z" transform="translate(694.5 1706) rotate(-90)" fill="#fff"/><path d="M0,0H.5V.5H0Z" transform="translate(686 1706) rotate(-90)" fill="#fff"/><path d="M0,0H.5V.5H0Z" transform="translate(690 1706) rotate(-90)" fill="#fff"/></g><path d="M0,0H.5V.5H0Z" transform="translate(687.5 1702.5)" fill="#fff"/><path d="M0,0H.5V.5H0Z" transform="translate(687 1703)" fill="#fff"/><path d="M0,0H.5V.5H0Z" transform="translate(686.5 1703.5)" fill="#fff"/><path d="M0,0H.5V.5H0Z" transform="translate(686 1704)" fill="#fff"/><path d="M0,0H.5V.5H0Z" transform="translate(686 1704.5)" fill="#fff"/><path d="M0,0H.5V.5H0Z" transform="translate(686 1705)" fill="#fff"/><path d="M0,0H.5V.5H0Z" transform="translate(685.5 1706)" fill="#fff"/><path d="M0,0H.5V.5H0Z" transform="translate(685.5 1706.5)" fill="#fff"/><path d="M0,0H.5V.5H0Z" transform="translate(685 1707)" fill="#fff"/><path d="M0,0H.5V.5H0Z" transform="translate(685 1707.5)" fill="#fff"/><path d="M0,0H.5V.5H0Z" transform="translate(685 1708)" fill="#fff"/><path d="M0,0H.5V.5H0Z" transform="translate(684.5 1708.5)" fill="#fff"/><path d="M0,0H.5V.5H0Z" transform="translate(684.5 1709.5)" fill="#fff"/><path d="M0,0H.5V.5H0Z" transform="translate(685 1710)" fill="#fff"/><path d="M0,0H.5V.5H0Z" transform="translate(685 1710.5)" fill="#fff"/><path d="M0,0H.5V.5H0Z" transform="translate(685 1711)" fill="#fff"/><path d="M0,0H.5V.5H0Z" transform="translate(685.5 1711.5)" fill="#fff"/><path d="M0,0H.5V.5H0Z" transform="translate(685.5 1712)" fill="#fff"/><path d="M0,0H.5V.5H0Z" transform="translate(686 1713)" fill="#fff"/><path d="M0,0H.5V.5H0Z" transform="translate(686 1713.5)" fill="#fff"/><path d="M0,0H.5V.5H0Z" transform="translate(686 1714)" fill="#fff"/><path d="M0,0H.5V.5H0Z" transform="translate(686.5 1714.5)" fill="#fff"/><path d="M0,0H.5V.5H0Z" transform="translate(687 1715)" fill="#fff"/><path d="M0,0H.5V.5H0Z" transform="translate(687.5 1715.5)" fill="#fff"/><path d="M.5,0H0V.5H.5Z" transform="translate(688.5 1702.5)" fill="#fff"/><path d="M.5,0H0V.5H.5Z" transform="translate(689 1703)" fill="#fff"/><path d="M.5,0H0V.5H.5Z" transform="translate(689.5 1703.5)" fill="#fff"/><path d="M.5,0H0V.5H.5Z" transform="translate(690 1704)" fill="#fff"/><path d="M.5,0H0V.5H.5Z" transform="translate(690 1704.5)" fill="#fff"/><path d="M.5,0H0V.5H.5Z" transform="translate(690 1705)" fill="#fff"/><path d="M.5,0H0V.5H.5Z" transform="translate(690.5 1706)" fill="#fff"/><path d="M.5,0H0V.5H.5Z" transform="translate(690.5 1706.5)" fill="#fff"/><path d="M.5,0H0V.5H.5Z" transform="translate(691 1707)" fill="#fff"/><path d="M.5,0H0V.5H.5Z" transform="translate(691 1707.5)" fill="#fff"/><path d="M.5,0H0V.5H.5Z" transform="translate(691 1708)" fill="#fff"/><path d="M.5,0H0V.5H.5Z" transform="translate(691.5 1708.5)" fill="#fff"/><path d="M.5,0H0V.5H.5Z" transform="translate(691.5 1709.5)" fill="#fff"/><path d="M.5,0H0V.5H.5Z" transform="translate(691 1710)" fill="#fff"/><path d="M.5,0H0V.5H.5Z" transform="translate(691 1710.5)" fill="#fff"/><path d="M.5,0H0V.5H.5Z" transform="translate(691 1711)" fill="#fff"/><path d="M.5,0H0V.5H.5Z" transform="translate(690.5 1711.5)" fill="#fff"/><path d="M.5,0H0V.5H.5Z" transform="translate(690.5 1712)" fill="#fff"/><path d="M.5,0H0V.5H.5Z" transform="translate(690 1713)" fill="#fff"/><path d="M.5,0H0V.5H.5Z" transform="translate(690 1713.5)" fill="#fff"/><path d="M.5,0H0V.5H.5Z" transform="translate(690 1714)" fill="#fff"/><path d="M.5,0H0V.5H.5Z" transform="translate(689.5 1714.5)" fill="#fff"/><path d="M.5,0H0V.5H.5Z" transform="translate(689 1715)" fill="#fff"/><path d="M.5,0H0V.5H.5Z" transform="translate(688.5 1715.5)" fill="#fff"/></g></g></svg>